<svg xmlns="http://www.w3.org/2000/svg" width="250" height="250" viewBox="0 0 250 250">
<!-- SVG created with Arrow, by QuiverAI (https://quiver.ai) -->
  <path d="m125.4 5 5.25 13.46 16.84 1.02-12.6 12.63 4.36 16.06-13.85-8.35-13.74 8.35 4.36-16.06-12.03-12.63 16.16-1.02 5.25-13.46z" fill="#11569E" stroke="#11569E" stroke-miterlimit="2.613" stroke-width=".5"/>
  <path d="m80.92 18.46 4.59 12.98 12.92 1.68-9.97 9.61 3.61 12.3-10.75-7.29-13.4 7.17 3.27-12.18-9-9.25 12.43-1.68 6.3-13.34z" fill="#11569E" stroke="#11569E" stroke-miterlimit="2.613" stroke-width=".25"/>
  <path d="m170.2 18.46 4.59 13.46 13.71 1.56-9.41 9.02 4.21 12.53-13.1-7.92-10.87 7.8 3.48-12.18-10.36-9.25 13.71-1.32 4.04-13.7z" fill="#11569E" stroke="#11569E" stroke-miterlimit="2.613" stroke-width=".25"/>
  <path d="m46.26 49.19 3.48 10.69 10.87 0.71-8.25 7.57 2.86 11.94-8.96-6.52-11.19 6.52 3.16-11.94-8.96-7.1 11.79-0.94 5.2-10.93z" fill="#11569E" stroke="#11569E" stroke-miterlimit="2.613" stroke-width=".25"/>
  <path d="m126.8 95.07c4.47-3.86 7.33-6.36 11.54-5.89 5.56 0.63 6.61 3.08 19.41 15.02 17.22-24.1 33.02-42.18 66.77-59.88 2.17-0.91 4.27-0.91 2.93 1.3-26.27 26.56-40.8 41.79-68.5 87.31-10.13-16.47-16.75-26.2-32.15-37.86z" fill="#CE2026" stroke="#D9272E" stroke-linecap="round" stroke-linejoin="round" stroke-miterlimit="2.613"/>
  <path d="m52.12 206.5c16.59 1.8 34.7 11.65 57.02 28.74l1.58-14.16c8.01 7.68 10.42 12.92 13.6 21.57-12.68 3.49-23.04 1.21-37.26-3.92-15.92-6-31-8.57-48.44-1.11 3.49-7.58 6.23-8.62 9.21-17.41 1.82-5.76 2.29-9.08 4.29-13.71z" fill="#000" stroke="#000" stroke-miterlimit="2.613" stroke-width=".25"/>
  <path d="m29.91 124.9c2.29-15.69 15.3-23.73 37.01-28.24 11.43-2.56 21.91-3.28 27.97-11.75 7.18 1.8 11.27 12.26 8.86 18.89-0.32 0.83-0.64 1.23-0.16 1.71 3.63 5.48 8.05 10.63 10.12 13.44 3.35 4.63 3.04 8.86 3.79 10.66 1.94 3.05 8.96 6.06 12.74 8.62 3.49 2.32 5.19 6.67 2.41 8.72-3.24 2.32-4.74 3.46-4.03 6.27 0.59 1.92 3.56 3.49 3.95 5.61 0.16 0.95-0.79 1.89-0.47 2.84 0.31 0.71 1.02 1.03 0.71 1.98-0.95 2.46-1.5 5.15 0.31 6.94 3.49 3.32 4.04 8.19 1.95 10.65-4.63 5.6-12.33 6.55-15.9 8.67-5.03 2.7-4.2 7.95-5.35 13.79-0.59 3.17-3.75 6.41-4.8 13.39-14.29-6.98-27.09-11.13-53.76-13.83-1.03-0.47-0.08-5.8-1.78-9.93-3.36-8.32-16.46-14.47-24-26.25-8.41-13.1-9.44-33.47 0.43-42.18z" fill="#000" stroke="#000" stroke-miterlimit="2.613" stroke-width=".25"/>
</svg>