<svg xmlns="http://www.w3.org/2000/svg" width="250" height="250" fill="none" viewBox="0 0 250 250">
<!-- SVG created with Arrow, by QuiverAI (https://quiver.ai) -->
  <path d="m47.18 173.4-0.2 11.42 15.93 26.2 6.53 0.02v31.09l139.5 0.04v-31.09h6.28l17.56-26.48v-11.2h-18.68v-3.59c0-3.62-0.98-6.69-1.8-9.06l-15.92-55.83c-1.13-3.53-1.81-5.9-5.71-7.15l-27.59-9.95c-4.26-1.53-8.01-6.02-8.36-7.37v-6.33c3.05-4.23 4.35-8.87 4.89-12.03 3.24-0.89 5.09-5.86 6.53-10.65 1.12-3.84 0.04-6.16-2.34-6.55 2.81-9 2.34-19.76-4.53-26.52-6.44-6.38-13.09-7.91-22.24-7.86-9.16 0.05-14.21 4.47-15.75 7.86-9.4 4.01-8.71 16.55-6.18 26.57-2.26 0.38-3.22 3.5-2.26 8.09 1.39 6.24 4.34 9.21 5.98 9.41 0.96 3.88 2.76 7.55 4.94 10.56v6.33l-5.94 5.07-3.45 0.54-20.13-1.18c-4.37 0-6.55 3.36-9.5 5.19l-10.05 0.34-10.05-0.83c-3.29-3.43-9.94-24.04-12.6-29.93-0.86-1.54-2.76-2.41-3.2-3.49-0.45-1.08-0.1-3.3 0.14-3.69 3.75-4.43 5.69-10.13 6.34-15.65 0.4-3.38 2.09-6.25 2.79-8.57 0.86-2.92-1.94-4.41-4.46-3.17-4.12 2.06-5.41 6.17-6.47 8.9l-1.11-0.44-2.95-21.22c-0.7-3.58-5.75-3.97-6.1 1.09l-0.34 6.62-2.04-9.28c-1.06-3.43-6.5-2.89-6.6 1.03l0.5 6.62-2.09-4.35c-2.18-2.52-6.08-0.3-5.58 2.98l2.28 7.81c-2.48-3.68-7.77-3.68-7.17 0.1 0.5 3.21 4.39 8.89 6.28 13.57 1.89 4.69 3.33 11.83 6.48 15.66 1.44 1.84 2.53 3.07 2.24 5.84l-1.2 1.23-0.59 4.84c-2.14 1.33-2.74 3.55-1.99 5.67l12.75 34.29c1.84 4.54 4.02 7.41 10.22 9.83 10.7 4.18 24.92 6.75 39.6 11.29 1.01 0.34 1.91 0.78 2.26 2.07l2.18 13.94c-8.26 10.15-9.7 15.9-10.3 30.77l-36.77 0.58z" fill="#FEFFFE" stroke="#004272" stroke-linecap="round" stroke-linejoin="round" stroke-miterlimit="10" stroke-width="1.5"/>
  <path d="m48.92 56.21c0.15 5.82-6.5 9.9-12.7 10.88-1.89 0.33-4.18 0.24-5.13-0.69" stroke="#004272" stroke-linecap="round" stroke-linejoin="round" stroke-miterlimit="10" stroke-width="1.5"/>
  <path d="m31.64 59.91 0.44 10.02c6.54 0.83 16.74-3.24 18.93-9.72" stroke="#004272" stroke-linecap="round" stroke-linejoin="round" stroke-miterlimit="10" stroke-width="1.5"/>
  <path d="m47.08 35.69c-5.15 1.83-8.1 4.75-9.15 9.98" stroke="#004272" stroke-linecap="round" stroke-linejoin="round" stroke-miterlimit="10" stroke-width="1.5"/>
  <path d="m115.5 44.93c1.29 1.08 2.83 3.15 3.03 7.18l0.8-16.38c0.6-4.58 0.8-8.61 7.2-7.72 4.42 1.13 7.61 2.26 12.66 2.26 4.57 0 8.12-1.53 11.21-1.97 3.39-0.54 5.73 1.97 5.63 5.39-0.3 3.63 2.79 6.15 3.39 10.43l0.3 8.39c0.4-2.27 1.4-6.45 3.54-7.48" stroke="#004272" stroke-linecap="round" stroke-linejoin="round" stroke-miterlimit="10" stroke-width="1.5"/>
  <path d="m119 57.44c0.9 5.68 2.1 10.72 8.59 17.64 3.49 3.63 6.28 6.15 12.67 6.15s8.63-3.12 12.75-7.81c4.88-5.51 6.08-12.96 6.48-18.94" stroke="#004272" stroke-linecap="round" stroke-linejoin="round" stroke-miterlimit="10" stroke-width="1.5"/>
  <path d="m124.8 74.65 0.1 5.54c3 3.93 9.04 8.06 13.51 10.53 6.39-2.47 12.83-7 15.31-10.53l-0.1-3.67" stroke="#004272" stroke-linecap="round" stroke-linejoin="round" stroke-miterlimit="10" stroke-width="1.5"/>
  <path d="m122 82.11-2.99 2.92-9 10.96c-1 1.13-1.7 1.62 0.2 2.41l5.94 2.52-7.34 5.09c-1 0.69-0.4 1.62 0 2.65 8.3 19.24 17.3 36.66 28.4 50.55l-0.9 13.55" stroke="#004272" stroke-linecap="round" stroke-linejoin="round" stroke-miterlimit="10" stroke-width="1.5"/>
  <path d="m156.8 83.09 13 15.02c0.7 0.93 0.2 1.37-0.9 1.91l-6.74 3.48 6.94 4.32c0.9 0.54 0.2 1.83-0.3 3.06-7.8 18.35-18 35.13-29.79 49.17" stroke="#004272" stroke-linecap="round" stroke-linejoin="round" stroke-miterlimit="10" stroke-width="1.5"/>
  <path d="m122 83.09c1.2 15.12 5.1 34.02 15.8 72.13" stroke="#004272" stroke-linecap="round" stroke-linejoin="round" stroke-miterlimit="10" stroke-width="1.5"/>
  <path d="m157.3 83.53c-2.49 13.54-6.18 31.89-17.04 70.41" stroke="#004272" stroke-linecap="round" stroke-linejoin="round" stroke-miterlimit="10" stroke-width="1.5"/>
  <path d="m124.3 83.09c1.9 3.93 6.68 8.92 4.29 6.7l0.3 0.34 4.29 4.18c-2.9 2.17-4.09 5.65-5.09 7.52-0.69 1.28-2.79-4.81-4.29-8.74" stroke="#004272" stroke-linecap="round" stroke-linejoin="round" stroke-miterlimit="10" stroke-width="1.5"/>
  <path d="m135.1 99.39-3.89 33.32" stroke="#004272" stroke-linecap="round" stroke-linejoin="round" stroke-miterlimit="10" stroke-width="1.5"/>
  <path d="m141.8 102.5 4.19 31.43" stroke="#004272" stroke-linecap="round" stroke-linejoin="round" stroke-miterlimit="10" stroke-width="1.5"/>
  <path d="m154.2 81.22c0.8 4.53-3.49 16.39-5.28 21.5-0.5 0.98-2.84-2.7-4.14-5.21-1.29-2.47-3.59-4.1-6.08-5.29" stroke="#004272" stroke-linecap="round" stroke-linejoin="round" stroke-miterlimit="10" stroke-width="1.5"/>
  <path d="m142.5 168.9c1.57 0 1.79-2.87 0.1-3.42-2.89-0.98-3.39 3.42-1 3.42h0.9z" stroke="#004272" stroke-linecap="round" stroke-linejoin="round" stroke-miterlimit="10" stroke-width="1.5"/>
  <path d="m232 173.9h-184.1v10h184.1v-10z" stroke="#004272" stroke-linecap="round" stroke-linejoin="round" stroke-miterlimit="10" stroke-width="1.5"/>
  <path d="m208.8 191.4h-138.5v49.28h138.5v-49.28z" stroke="#004272" stroke-linecap="round" stroke-linejoin="round" stroke-miterlimit="10" stroke-width="1.5"/>
  <path d="m92.16 126c-1.45-5.74-2.94-10.02-5.43-12.89" stroke="#004272" stroke-linecap="round" stroke-linejoin="round" stroke-miterlimit="10" stroke-width="1.5"/>
  <path d="m95.21 142c1.2-2.02 1-5.03 1.8-8.1 1.19-3.12 5.48-7.32 8.48-6.44 3.79 1.18 3.19 5.71-0.2 9.43-3.3 3.63-6.19 4.02-7.69 3.09" stroke="#004272" stroke-linecap="round" stroke-linejoin="round" stroke-miterlimit="10" stroke-width="1.5"/>
  <path d="m94.91 142.6c1.2 8.55 1.3 18.65 1 30.13" stroke="#004272" stroke-linecap="round" stroke-linejoin="round" stroke-miterlimit="10" stroke-width="1.5"/>
  <path d="m183.8 139.7 3.19-19.24" stroke="#004272" stroke-linecap="round" stroke-linejoin="round" stroke-miterlimit="10" stroke-width="1.5"/>
  <path d="m183 140.6c1.8 2.32 5.99 7.3 7.98 11.58 2.8 6.09 3.7 13.02 3.7 20.57" stroke="#004272" stroke-linecap="round" stroke-linejoin="round" stroke-miterlimit="10" stroke-width="1.5"/>
  <path d="m183 140.6c-0.89 8.84-2.39 17.33-2.29 31.8" stroke="#004272" stroke-linecap="round" stroke-linejoin="round" stroke-miterlimit="10" stroke-width="1.5"/>
  <path d="m172.6 129.1c-1.8 2.97 0.3 6.59 3.69 9.66 2.69 2.31 5.38 1.52 5.88 0 1.3-3.58-2.59-9.71-7.08-11.24-1-0.24-1.89 0.34-2.49 1.58z" stroke="#004272" stroke-linecap="round" stroke-linejoin="round" stroke-miterlimit="10" stroke-width="1.5"/>
  <path d="m183.2 156.1c2.79 5.57 4.79 10.1 5.09 16.11" stroke="#004272" stroke-linecap="round" stroke-linejoin="round" stroke-miterlimit="10" stroke-width="1.5"/>
  <path d="m26.68 13.46 4.74 15.28c0.7 2.12 0.6 1.33 1.2 0.59l-3.39-17.25" stroke="#004272" stroke-linecap="round" stroke-linejoin="round" stroke-miterlimit="10" stroke-width="1.5"/>
  <path d="m33.82 9.62 3.89 16.67c0.4 1.42 1 1.37 1.3 1.03l-1.3-15.24" stroke="#004272" stroke-linecap="round" stroke-linejoin="round" stroke-miterlimit="10" stroke-width="1.5"/>
  <path d="m17.92 22.91 7.24 9.94c0.9 0.98 1.7 0.44 2-0.44l-5.05-16.37" stroke="#004272" stroke-linecap="round" stroke-linejoin="round" stroke-miterlimit="10" stroke-width="1.5"/>
</svg>